<svg id="Layer_1" data-name="Layer 1" xmlns="http://www.w3.org/2000/svg" viewBox="0 0 673.864 657.54">
  <defs>
    <style>
      .cls-1 {
        fill: #fff;
      }
    </style>
  </defs>
  <title>Logo</title>
  <g>
    <path class="cls-1" d="M407.737,144.178v.056l.056-.056Z" transform="translate(-113.068 -121.23)"/>
    <path class="cls-1" d="M783.242,567.845H735.193L575.644,254.924,699.471,127.407h83.772c2.46,0,3.69-.615,3.69-3.1,0-2.46-1.23-3.075-3.69-3.075H624.923c-2.46,0-3.69.615-3.69,3.075,0,2.488,1.23,3.1,3.69,3.1h65.3L488.8,332.518,610.5,573.994H783.242c2.46,0,3.69-.615,3.69-3.075S785.7,567.845,783.242,567.845Zm-238.346,0H488.8V127.407h56.1c2.46,0,3.69-.615,3.69-3.1,0-2.46-1.23-3.075-3.69-3.075H118.016c-2.46,0-3.69.615-3.69,3.075,0,2.488,1.23,3.1,3.69,3.1H165.45V567.845H116.786c-2.46,0-3.718.615-3.718,3.075s1.258,3.075,3.718,3.075H278.18V127.407h97.888V232.842L278.18,332.518,400.246,573.994H544.9c2.46,0,3.69-.615,3.69-3.075S547.356,567.845,544.9,567.845Z" transform="translate(-113.068 -121.23)"/>
    <g>
      <path class="cls-1" d="M208.789,691.419v.42c0,11.74-7.687,17.751-19.568,17.751-11.741,0-19.428-6.011-19.428-17.751V677.022c0-11.74,7.688-17.75,19.568-17.75,11.741,0,19.428,6.01,19.428,17.75v.42H197.957v-.42c0-5.521-3.425-8.315-8.6-8.315-5.311,0-8.735,2.795-8.735,8.315v14.816c0,5.521,3.424,8.316,8.6,8.316,5.311,0,8.736-2.8,8.736-8.316v-.42Z" transform="translate(-113.068 -121.23)"/>
      <path class="cls-1" d="M316.727,708.891H304.986l-3.145-10.343H285.278l-3.145,10.343H271.441l16-48.92h13.278Zm-28.583-19.777h10.762L293.524,671.5Z" transform="translate(-113.068 -121.23)"/>
      <path class="cls-1" d="M391.608,679.889v29H380.775v-48.92h10.134l18.03,29v-29h10.832v48.92H409.638Z" transform="translate(-113.068 -121.23)"/>
      <path class="cls-1" d="M498.846,679.889v29H488.014v-48.92h10.133l18.03,29v-29H527.01v48.92H516.876Z" transform="translate(-113.068 -121.23)"/>
      <path class="cls-1" d="M595.252,659.971h34.1v9.435H606.084v10.273h19.777v9.435H606.084v10.343h23.271v9.435h-34.1Z" transform="translate(-113.068 -121.23)"/>
      <path class="cls-1" d="M716.258,690.092l-8.036-1.4c-8.387-1.467-13.418-6.289-13.418-13.977,0-10.413,7.2-15.444,18.8-15.444s18.8,5.031,18.8,14.885v1.188H721.569v-1.188c0-3.634-2.936-5.45-7.967-5.45s-7.617,1.467-7.617,5.241c0,2.586,2.026,4.333,4.961,4.822l8.037,1.4c8.806,1.537,13.418,6.289,13.418,13.907,0,10.482-7.2,15.515-18.8,15.515s-18.8-5.032-18.8-14.886v-1.188h10.832V694.7c0,3.634,2.935,5.451,7.967,5.451s7.617-1.4,7.617-5.312C721.22,692.188,719.193,690.581,716.258,690.092Z" transform="translate(-113.068 -121.23)"/>
    </g>
  </g>
</svg>
